<?xml version="1.0" encoding="utf-8"?>
<!-- Generator: Adobe Illustrator 16.0.0, SVG Export Plug-In . SVG Version: 6.00 Build 0)  -->
<!DOCTYPE svg PUBLIC "-//W3C//DTD SVG 1.1//EN" "http://www.w3.org/Graphics/SVG/1.1/DTD/svg11.dtd">
<svg version="1.1" id="Layer_1" xmlns="http://www.w3.org/2000/svg" xmlns:xlink="http://www.w3.org/1999/xlink" x="0px" y="0px"
	 width="1000px" height="800px" viewBox="0 0 1000 800" enable-background="new 0 0 1000 800" xml:space="preserve">
<rect x="296.897" y="371.436" fill="#4167B1" width="230.77" height="133.333"/>
<text transform="matrix(1 0 0 1 141.7695 378.436)" fill="#4167B1" font-family="'MyriadPro-Regular'" font-size="21">Expected Wins</text>
<line fill="none" stroke="#000000" stroke-width="8" stroke-miterlimit="10" x1="296.897" y1="504.769" x2="527.667" y2="371.436"/>
<text transform="matrix(1 0 0 1 219.4102 508.8975)" font-family="'MyriadPro-Regular'" font-size="21">Wins</text>
<text transform="matrix(1 0 0 1 561.8721 378.436)" font-family="'MyriadPro-Regular'" font-size="21">Wins</text>
<text transform="matrix(1 0 0 1 567.0498 508.8984)" fill="#4167B1" font-family="'MyriadPro-Regular'" font-size="21">Expected Wins</text>
<text transform="matrix(1 0 0 1 278.6919 344.5381)" font-family="'MyriadPro-Regular'" font-size="18">Year 1</text>
<text transform="matrix(1 0 0 1 507.1533 346.5381)" font-family="'MyriadPro-Regular'" font-size="18">Year 2</text>
<line fill="#666766" stroke="#000000" stroke-width="2" stroke-miterlimit="10" x1="298.897" y1="351.205" x2="298.897" y2="370.436"/>
<line fill="#666766" x1="526.897" y1="349.205" x2="526.897" y2="368.436"/>
<line fill="none" stroke="#000000" stroke-width="2" stroke-miterlimit="10" x1="296.897" y1="371.436" x2="277.692" y2="371.436"/>
<line fill="none" stroke="#000000" stroke-width="2" stroke-miterlimit="10" x1="527.667" y1="371.436" x2="554.59" y2="371.436"/>
<line fill="none" stroke="#000000" stroke-width="2" stroke-miterlimit="10" x1="527.669" y1="503.769" x2="554.589" y2="503.769"/>
<line fill="none" stroke="#000000" stroke-width="2" stroke-miterlimit="10" x1="270.835" y1="503.769" x2="297.755" y2="503.769"/>
</svg>
